<svg width="1080" height="1440" viewBox="0 0 1080 1440" fill="none" xmlns="http://www.w3.org/2000/svg">
  <rect width="1080" height="1440" fill="#F5F1E8" />
  <rect x="0" y="0" width="1080" height="260" fill="#FF5A36" />
  <circle cx="950" cy="160" r="220" fill="rgba(255,255,255,0.12)" />
  <circle cx="120" cy="1320" r="200" fill="rgba(255,90,54,0.10)" />

  <text x="72" y="110" font-size="34" font-weight="800" fill="#FFF7ED">今日荒谬指数</text>
  <text x="72" y="162" font-size="24" font-weight="700" fill="#FFE7D9">2026-03-24</text>
  <text x="72" y="220" font-size="88" font-weight="900" fill="#FFFFFF">TOP 10 离谱事件</text>

  <rect x="56" y="286" width="968" height="520" rx="42" fill="#FFF8EE" />
  <text x="72" y="272" font-size="22" font-weight="800" fill="#9A3412">今日最离谱</text>
  <text x="72" y="320" font-size="60" font-weight="900" fill="#0B0F14">自称日本自卫队现役官员强</text>
<text x="72" y="394" font-size="60" font-weight="900" fill="#0B0F14">闯中国驻日本大使馆，外交</text>
<text x="72" y="468" font-size="60" font-weight="900" fill="#0B0F14">部：严正交涉，强烈抗议</text>

  <rect x="72" y="620" width="330" height="122" rx="34" fill="#111827" />
  <text x="108" y="674" font-size="28" font-weight="700" fill="#D1FAE5">今日指数</text>
  <text x="108" y="730" font-size="86" font-weight="900" fill="#6EE7B7">85</text>

  <rect x="430" y="620" width="520" height="122" rx="34" fill="#FFFFFF" fill-opacity="0.88" />
  <text x="466" y="674" font-size="24" font-weight="800" fill="#374151">高危荒谬</text>
  <text x="466" y="722" font-size="28" font-weight="700" fill="#111827">今天建议少刷热搜，多喝水，保护理智。</text>

  
        <rect x="72" y="858" rx="22" ry="22" width="150" height="46" fill="#111827" fill-opacity="0.08" />
        <text x="94" y="888" font-size="24" font-weight="700" fill="#1F2937">外交越界</text>

        <rect x="252" y="858" rx="22" ry="22" width="150" height="46" fill="#111827" fill-opacity="0.08" />
        <text x="274" y="888" font-size="24" font-weight="700" fill="#1F2937">身份冒用</text>

        <rect x="432" y="858" rx="22" ry="22" width="150" height="46" fill="#111827" fill-opacity="0.08" />
        <text x="454" y="888" font-size="24" font-weight="700" fill="#1F2937">安全失序</text>

  <text x="72" y="934" font-size="30" font-weight="900" fill="#111827">今天最值得看的 3 条</text>
  
        <rect x="68" y="960" width="944" height="92" rx="28" fill="rgba(255,255,255,0.82)" />
        <text x="100" y="994" font-size="20" font-weight="800" fill="#FF3B30">TOP 1</text>
        <text x="100" y="1028" font-size="28" font-weight="800" fill="#111827">自称日本自卫队现役官员强闯中国驻日本…</text>
        <text x="970" y="1024" text-anchor="end" font-size="40" font-weight="900" fill="#111827">92</text>
      

        <rect x="68" y="1076" width="944" height="92" rx="28" fill="rgba(255,255,255,0.82)" />
        <text x="100" y="1110" font-size="20" font-weight="800" fill="#FF3B30">TOP 2</text>
        <text x="100" y="1144" font-size="28" font-weight="800" fill="#111827">佳兆业集团在港交所公告称，预计202…</text>
        <text x="970" y="1140" text-anchor="end" font-size="40" font-weight="900" fill="#111827">92</text>
      

        <rect x="68" y="1192" width="944" height="92" rx="28" fill="rgba(255,255,255,0.82)" />
        <text x="100" y="1226" font-size="20" font-weight="800" fill="#FF3B30">TOP 3</text>
        <text x="100" y="1260" font-size="28" font-weight="800" fill="#111827">中方回应日本人强闯中使馆威胁杀人</text>
        <text x="970" y="1256" text-anchor="end" font-size="40" font-weight="900" fill="#111827">92</text>
      

  <text x="72" y="1374" font-size="24" font-weight="700" fill="#6B7280">把外交场合当闯关现场</text>
  <text x="72" y="1412" font-size="18" font-weight="700" fill="#9CA3AF">collie.cc</text>
</svg>