<svg width="1080" height="1440" viewBox="0 0 1080 1440" fill="none" xmlns="http://www.w3.org/2000/svg">
  <rect width="1080" height="1440" fill="#F7F3EC" />
  <rect x="0" y="0" width="1080" height="230" fill="#FF6A3D" />
  <circle cx="940" cy="120" r="200" fill="rgba(255,255,255,0.12)" />
  <circle cx="160" cy="1290" r="180" fill="rgba(255,106,61,0.08)" />

  <text x="68" y="96" font-size="32" font-weight="800" fill="#FFF7ED">今日荒谬指数</text>
  <text x="68" y="142" font-size="22" font-weight="700" fill="#FFE7D9">2026-03-25</text>
  <text x="68" y="204" font-size="72" font-weight="900" fill="#FFFFFF">TOP 5 离谱事件</text>

  <rect x="44" y="254" width="992" height="440" rx="42" fill="#FFF8EE" />
  <text x="68" y="276" font-size="20" font-weight="800" fill="#C2410C">今天最离谱</text>
  <text x="68" y="352" font-size="50" font-weight="900" fill="#111827">气得想把刘敏涛的痣抠下来</text>

  <rect x="68" y="530" width="260" height="110" rx="30" fill="#111827" />
  <text x="96" y="572" font-size="24" font-weight="700" fill="#D1FAE5">今日指数</text>
  <text x="96" y="626" font-size="64" font-weight="900" fill="#6EE7B7">85</text>

  <rect x="352" y="530" width="628" height="110" rx="30" fill="rgba(255,255,255,0.88)" />
  <text x="386" y="572" font-size="22" font-weight="800" fill="#374151">高危荒谬</text>
  <text x="386" y="618" font-size="26" font-weight="700" fill="#111827">今天建议少刷热搜，多喝水，保护理智。</text>

  
        <rect x="68" y="724" rx="20" ry="20" width="138" height="42" fill="#111827" fill-opacity="0.08" />
        <text x="86" y="751" font-size="22" font-weight="700" fill="#374151">标题党</text>

        <rect x="236" y="724" rx="20" ry="20" width="138" height="42" fill="#111827" fill-opacity="0.08" />
        <text x="254" y="751" font-size="22" font-weight="700" fill="#374151">审美暴力</text>

        <rect x="404" y="724" rx="20" ry="20" width="138" height="42" fill="#111827" fill-opacity="0.08" />
        <text x="422" y="751" font-size="22" font-weight="700" fill="#374151">饭圈情绪</text>

  <text x="68" y="804" font-size="28" font-weight="900" fill="#111827">今天最值得看的 5 条</text>
  
        <rect x="56" y="838" width="968" height="68" rx="22" fill="rgba(255,255,255,0.86)" />
        <text x="86" y="862" font-size="17" font-weight="800" fill="#F97316">TOP 1</text>
        <text x="86" y="886" font-size="24" font-weight="800" fill="#111827">气得想把刘敏涛的痣抠下来</text>
        <text x="986" y="884" text-anchor="end" font-size="28" font-weight="900" fill="#111827">92</text>
      

        <rect x="56" y="926" width="968" height="68" rx="22" fill="rgba(255,255,255,0.86)" />
        <text x="86" y="950" font-size="17" font-weight="800" fill="#F97316">TOP 2</text>
        <text x="86" y="974" font-size="24" font-weight="800" fill="#111827">患者两年后发现住院检测报告系伪造，中山大学…</text>
        <text x="986" y="972" text-anchor="end" font-size="28" font-weight="900" fill="#111827">92</text>
      

        <rect x="56" y="1014" width="968" height="68" rx="22" fill="rgba(255,255,255,0.86)" />
        <text x="86" y="1038" font-size="17" font-weight="800" fill="#F97316">TOP 3</text>
        <text x="86" y="1062" font-size="24" font-weight="800" fill="#111827">市监局回应专柜买4个LV包为假货</text>
        <text x="986" y="1060" text-anchor="end" font-size="28" font-weight="900" fill="#111827">87</text>
      

        <rect x="56" y="1102" width="968" height="68" rx="22" fill="rgba(255,255,255,0.86)" />
        <text x="86" y="1126" font-size="17" font-weight="800" fill="#F97316">TOP 4</text>
        <text x="86" y="1150" font-size="24" font-weight="800" fill="#111827">日方回应自卫队人员强闯我大使馆</text>
        <text x="986" y="1148" text-anchor="end" font-size="28" font-weight="900" fill="#111827">86</text>
      

        <rect x="56" y="1190" width="968" height="68" rx="22" fill="rgba(255,255,255,0.86)" />
        <text x="86" y="1214" font-size="17" font-weight="800" fill="#F97316">TOP 5</text>
        <text x="86" y="1238" font-size="24" font-weight="800" fill="#111827">伊朗海军：已发射导弹打击美国“林肯”号航母</text>
        <text x="986" y="1236" text-anchor="end" font-size="28" font-weight="900" fill="#111827">86</text>
      

  <text x="68" y="1372" font-size="22" font-weight="700" fill="#6B7280">气到要对痣下手？</text>
  <text x="68" y="1410" font-size="18" font-weight="700" fill="#9CA3AF">absurdity-index</text>
</svg>